<svg xmlns="http://www.w3.org/2000/svg" width="28" height="28" viewBox="0 0 28 28" fill="none">
  <rect x="6.65973" width="21.0378" height="16.4973" rx="8.24865" fill="#CCDDFF"/>
  <rect x="6.65955" y="11.5028" width="21.0378" height="16.4973" rx="8.24865" fill="#558FFF"/>
  <path d="M20.6179 7.38208L7.38208 20.6179C4.65791 23.3421 -2.87939e-07 21.4127 -4.5634e-07 17.5602L-1.0349e-06 4.32433C-1.13929e-06 1.93607 1.93606 3.73007e-06 4.32432 3.62568e-06L17.5602 3.04712e-06C21.4127 2.87872e-06 23.3421 4.65791 20.6179 7.38208Z" fill="#FFC4C4"/>
  <path d="M7.38208 7.38207L20.6179 20.6179C23.3421 23.3421 21.4127 28 17.5602 28L4.32433 28C1.93607 28 3.98395e-06 26.0639 4.19274e-06 23.6757L5.34985e-06 10.4398C5.68666e-06 6.58728 4.65791 4.6579 7.38208 7.38207Z" fill="#FF4343"/>
</svg>